<mxfile host="app.diagrams.net" modified="2020-09-25T09:41:53.641Z" agent="5.0 (Windows NT 10.0; Win64; x64) AppleWebKit/537.36 (KHTML, like Gecko) Chrome/87.0.4272.0 Safari/537.36" etag="8KK72QRJRppDaqYafSFC" version="13.7.5" type="github">
  <diagram id="1cee9afd-dcdd-cf27-cb82-50d77dad4855" name="Page-1">
    <mxGraphModel dx="865" dy="518" grid="1" gridSize="10" guides="1" tooltips="1" connect="1" arrows="1" fold="1" page="1" pageScale="1" pageWidth="850" pageHeight="1100" math="0" shadow="0">
      <root>
        <mxCell id="0" />
        <mxCell id="1" parent="0" />
        <mxCell id="c1cb8d76720eaeb-22" value="MOTU - use cases" style="shape=umlFrame;whiteSpace=wrap;html=1;strokeWidth=1;fillColor=none;width=200;height=30;fontColor=#000099;strokeColor=#000066;" parent="1" vertex="1">
          <mxGeometry x="220" y="20" width="730" height="730" as="geometry" />
        </mxCell>
        <mxCell id="c1cb8d76720eaeb-20" value="Provider" style="shape=umlActor;verticalLabelPosition=bottom;labelBackgroundColor=#ffffff;verticalAlign=top;html=1;strokeWidth=4;fillColor=#FF8000;strokeColor=#000066;fontColor=#000099;" parent="1" vertex="1">
          <mxGeometry x="970" y="355" width="30" height="55" as="geometry" />
        </mxCell>
        <mxCell id="c1cb8d76720eaeb-1" value="Login" style="ellipse;whiteSpace=wrap;html=1;fillColor=#FF8000;strokeColor=#000066;fontColor=#000099;" parent="1" vertex="1">
          <mxGeometry x="260" y="80" width="120" height="80" as="geometry" />
        </mxCell>
        <mxCell id="c1cb8d76720eaeb-2" value="Registration" style="ellipse;whiteSpace=wrap;html=1;fillColor=#FF8000;strokeColor=#000066;fontColor=#000099;" parent="1" vertex="1">
          <mxGeometry x="260" y="175" width="120" height="80" as="geometry" />
        </mxCell>
        <mxCell id="c1cb8d76720eaeb-3" value="User profile" style="ellipse;whiteSpace=wrap;html=1;fillColor=#FF8000;strokeColor=#000066;fontColor=#000099;" parent="1" vertex="1">
          <mxGeometry x="550" y="160" width="120" height="80" as="geometry" />
        </mxCell>
        <mxCell id="c1cb8d76720eaeb-6" value="Plan your route" style="ellipse;whiteSpace=wrap;html=1;fillColor=#FF8000;strokeColor=#000066;fontColor=#000099;" parent="1" vertex="1">
          <mxGeometry x="260" y="457.5" width="120" height="80" as="geometry" />
        </mxCell>
        <mxCell id="c1cb8d76720eaeb-10" style="html=1;exitX=1;exitY=0.3333333333333333;exitPerimeter=0;entryX=0;entryY=0.5;jettySize=auto;orthogonalLoop=1;fillColor=#f8cecc;strokeColor=#FF8000;curved=1;fontColor=#000099;" parent="1" source="c1cb8d76720eaeb-15" target="c1cb8d76720eaeb-1" edge="1">
          <mxGeometry relative="1" as="geometry" />
        </mxCell>
        <mxCell id="c1cb8d76720eaeb-11" style="html=1;exitX=1;exitY=0.3333333333333333;exitPerimeter=0;entryX=0;entryY=0.5;jettySize=auto;orthogonalLoop=1;curved=1;fontColor=#000099;strokeColor=#FF8000;" parent="1" source="c1cb8d76720eaeb-15" target="c1cb8d76720eaeb-2" edge="1">
          <mxGeometry relative="1" as="geometry" />
        </mxCell>
        <mxCell id="c1cb8d76720eaeb-12" style="rounded=0;html=1;exitX=1;exitY=0.3333333333333333;exitPerimeter=0;entryX=0;entryY=0.5;jettySize=auto;orthogonalLoop=1;fontColor=#000099;strokeColor=#FF8000;" parent="1" source="c1cb8d76720eaeb-15" target="c1cb8d76720eaeb-26" edge="1">
          <mxGeometry relative="1" as="geometry" />
        </mxCell>
        <mxCell id="c1cb8d76720eaeb-13" style="edgeStyle=none;curved=1;html=1;exitX=1;exitY=0.3333333333333333;exitPerimeter=0;jettySize=auto;orthogonalLoop=1;strokeColor=#FF8000;fontColor=#000099;" parent="1" source="c1cb8d76720eaeb-15" target="KjHHZVlX-_jgiWTTWuIh-20" edge="1">
          <mxGeometry relative="1" as="geometry">
            <Array as="points">
              <mxPoint x="320" y="300" />
            </Array>
          </mxGeometry>
        </mxCell>
        <mxCell id="c1cb8d76720eaeb-14" style="edgeStyle=none;curved=1;html=1;exitX=1;exitY=0.3333333333333333;exitPerimeter=0;jettySize=auto;orthogonalLoop=1;strokeColor=#FF8000;entryX=0;entryY=0.5;fontColor=#000099;" parent="1" source="c1cb8d76720eaeb-15" target="c1cb8d76720eaeb-6" edge="1">
          <mxGeometry relative="1" as="geometry" />
        </mxCell>
        <mxCell id="c1cb8d76720eaeb-15" value="User" style="shape=umlActor;verticalLabelPosition=bottom;labelBackgroundColor=#ffffff;verticalAlign=top;html=1;strokeWidth=4;fillColor=#FF8000;strokeColor=#000066;fontColor=#000099;" parent="1" vertex="1">
          <mxGeometry x="130" y="350" width="30" height="60" as="geometry" />
        </mxCell>
        <mxCell id="c1cb8d76720eaeb-17" style="edgeStyle=none;curved=1;html=1;exitX=0;exitY=0.3333333333333333;exitPerimeter=0;entryX=1;entryY=0.5;jettySize=auto;orthogonalLoop=1;strokeColor=#FF8000;fontColor=#000099;entryDx=0;entryDy=0;" parent="1" source="c1cb8d76720eaeb-20" target="KjHHZVlX-_jgiWTTWuIh-36" edge="1">
          <mxGeometry relative="1" as="geometry" />
        </mxCell>
        <mxCell id="c1cb8d76720eaeb-26" value="List activities" style="ellipse;whiteSpace=wrap;html=1;fillColor=#FF8000;strokeColor=#000066;fontColor=#000099;" parent="1" vertex="1">
          <mxGeometry x="260" y="355" width="120" height="80" as="geometry" />
        </mxCell>
        <mxCell id="c1cb8d76720eaeb-27" value="&amp;lt;&amp;lt; include &amp;gt;&amp;gt;" style="endArrow=open;endSize=12;dashed=1;html=1;fontColor=#000099;strokeColor=#FF8000;entryX=1;entryY=0;entryDx=0;entryDy=0;exitX=1;exitY=0.5;exitDx=0;exitDy=0;" parent="1" source="c1cb8d76720eaeb-2" target="KjHHZVlX-_jgiWTTWuIh-20" edge="1">
          <mxGeometry width="160" relative="1" as="geometry">
            <mxPoint x="357" y="277" as="sourcePoint" />
            <mxPoint x="513" y="163" as="targetPoint" />
          </mxGeometry>
        </mxCell>
        <mxCell id="c1cb8d76720eaeb-28" value="&amp;lt;&amp;lt; exclude &amp;gt;&amp;gt;" style="endArrow=open;endSize=12;dashed=1;html=1;exitX=1;exitY=0.5;entryX=0;entryY=0;fontColor=#000099;strokeColor=#FF8000;entryDx=0;entryDy=0;" parent="1" source="c1cb8d76720eaeb-1" target="c1cb8d76720eaeb-3" edge="1">
          <mxGeometry width="160" relative="1" as="geometry">
            <mxPoint x="375" y="215" as="sourcePoint" />
            <mxPoint x="667.573593128807" y="176.71572875253798" as="targetPoint" />
          </mxGeometry>
        </mxCell>
        <mxCell id="KjHHZVlX-_jgiWTTWuIh-5" value="&amp;lt;&amp;lt; exclude &amp;gt;&amp;gt;" style="endArrow=open;endSize=12;dashed=1;html=1;fontColor=#000099;strokeColor=#FF8000;" edge="1" parent="1" source="c1cb8d76720eaeb-1" target="KjHHZVlX-_jgiWTTWuIh-6">
          <mxGeometry width="160" relative="1" as="geometry">
            <mxPoint x="375" y="125" as="sourcePoint" />
            <mxPoint x="502.57359312880726" y="176.71572875253833" as="targetPoint" />
          </mxGeometry>
        </mxCell>
        <mxCell id="KjHHZVlX-_jgiWTTWuIh-6" value="Invalid Details" style="ellipse;whiteSpace=wrap;html=1;fillColor=#FF8000;strokeColor=#000066;fontColor=#000099;" vertex="1" parent="1">
          <mxGeometry x="460" y="40" width="120" height="80" as="geometry" />
        </mxCell>
        <mxCell id="KjHHZVlX-_jgiWTTWuIh-20" value="Personal Details" style="ellipse;whiteSpace=wrap;html=1;strokeColor=#000066;fillColor=#FF8000;fontColor=#000099;" vertex="1" parent="1">
          <mxGeometry x="350" y="275" width="120" height="80" as="geometry" />
        </mxCell>
        <mxCell id="KjHHZVlX-_jgiWTTWuIh-22" value="" style="endArrow=classic;html=1;dashed=1;strokeColor=#FF8000;fontColor=#000099;exitX=1;exitY=0.5;exitDx=0;exitDy=0;" edge="1" parent="1" source="KjHHZVlX-_jgiWTTWuIh-20" target="c1cb8d76720eaeb-3">
          <mxGeometry relative="1" as="geometry">
            <mxPoint x="500" y="330" as="sourcePoint" />
            <mxPoint x="600" y="330" as="targetPoint" />
          </mxGeometry>
        </mxCell>
        <mxCell id="KjHHZVlX-_jgiWTTWuIh-23" value="&amp;lt;&amp;lt; include &amp;gt;&amp;gt;" style="edgeLabel;resizable=0;html=1;align=center;verticalAlign=middle;fontColor=#000099;" connectable="0" vertex="1" parent="KjHHZVlX-_jgiWTTWuIh-22">
          <mxGeometry relative="1" as="geometry" />
        </mxCell>
        <mxCell id="KjHHZVlX-_jgiWTTWuIh-24" value="Location" style="ellipse;whiteSpace=wrap;html=1;strokeColor=#000066;fillColor=#FF8000;fontColor=#000099;" vertex="1" parent="1">
          <mxGeometry x="460" y="410" width="120" height="50" as="geometry" />
        </mxCell>
        <mxCell id="KjHHZVlX-_jgiWTTWuIh-25" value="Budget" style="ellipse;whiteSpace=wrap;html=1;strokeColor=#000066;fillColor=#FF8000;fontColor=#000099;" vertex="1" parent="1">
          <mxGeometry x="460" y="487.5" width="120" height="50" as="geometry" />
        </mxCell>
        <mxCell id="KjHHZVlX-_jgiWTTWuIh-26" value="" style="endArrow=classic;html=1;dashed=1;strokeColor=#FF8000;fontColor=#000099;entryX=-0.023;entryY=0.622;entryDx=0;entryDy=0;entryPerimeter=0;" edge="1" parent="1" source="c1cb8d76720eaeb-6" target="KjHHZVlX-_jgiWTTWuIh-24">
          <mxGeometry relative="1" as="geometry">
            <mxPoint x="480" y="325" as="sourcePoint" />
            <mxPoint x="582.1898667079627" y="241.05832377560182" as="targetPoint" />
          </mxGeometry>
        </mxCell>
        <mxCell id="KjHHZVlX-_jgiWTTWuIh-27" value="&amp;lt;&amp;lt; include &amp;gt;&amp;gt;" style="edgeLabel;resizable=0;html=1;align=center;verticalAlign=middle;fontColor=#000099;" connectable="0" vertex="1" parent="KjHHZVlX-_jgiWTTWuIh-26">
          <mxGeometry relative="1" as="geometry" />
        </mxCell>
        <mxCell id="KjHHZVlX-_jgiWTTWuIh-28" value="" style="endArrow=classic;html=1;dashed=1;strokeColor=#FF8000;fontColor=#000099;exitX=0.95;exitY=0.729;exitDx=0;exitDy=0;exitPerimeter=0;" edge="1" parent="1" source="c1cb8d76720eaeb-6" target="KjHHZVlX-_jgiWTTWuIh-25">
          <mxGeometry relative="1" as="geometry">
            <mxPoint x="384.2101104908588" y="490.35663172511295" as="sourcePoint" />
            <mxPoint x="447.24" y="469.76" as="targetPoint" />
          </mxGeometry>
        </mxCell>
        <mxCell id="KjHHZVlX-_jgiWTTWuIh-29" value="&amp;lt;&amp;lt; include &amp;gt;&amp;gt;" style="edgeLabel;resizable=0;html=1;align=center;verticalAlign=middle;fontColor=#000099;" connectable="0" vertex="1" parent="KjHHZVlX-_jgiWTTWuIh-28">
          <mxGeometry relative="1" as="geometry" />
        </mxCell>
        <mxCell id="KjHHZVlX-_jgiWTTWuIh-30" value="Payment/Redirection" style="ellipse;whiteSpace=wrap;html=1;strokeColor=#000066;fillColor=#FF8000;fontColor=#000099;" vertex="1" parent="1">
          <mxGeometry x="460" y="570" width="120" height="50" as="geometry" />
        </mxCell>
        <mxCell id="KjHHZVlX-_jgiWTTWuIh-31" style="edgeStyle=none;curved=1;html=1;jettySize=auto;orthogonalLoop=1;strokeColor=#FF8000;fontColor=#000099;exitX=1;exitY=0.3333333333333333;exitDx=0;exitDy=0;exitPerimeter=0;entryX=0;entryY=0.5;entryDx=0;entryDy=0;" edge="1" parent="1" source="c1cb8d76720eaeb-15" target="KjHHZVlX-_jgiWTTWuIh-66">
          <mxGeometry relative="1" as="geometry">
            <mxPoint x="160" y="220" as="sourcePoint" />
            <mxPoint x="270" y="507.5" as="targetPoint" />
            <Array as="points">
              <mxPoint x="230" y="610" />
            </Array>
          </mxGeometry>
        </mxCell>
        <mxCell id="KjHHZVlX-_jgiWTTWuIh-33" value="Restaurants" style="ellipse;whiteSpace=wrap;html=1;strokeColor=#000066;fillColor=#FF8000;fontColor=#000099;" vertex="1" parent="1">
          <mxGeometry x="730" y="80" width="120" height="40" as="geometry" />
        </mxCell>
        <mxCell id="KjHHZVlX-_jgiWTTWuIh-34" value="Shops" style="ellipse;whiteSpace=wrap;html=1;strokeColor=#000066;fillColor=#FF8000;fontColor=#000099;" vertex="1" parent="1">
          <mxGeometry x="730" y="150" width="120" height="40" as="geometry" />
        </mxCell>
        <mxCell id="KjHHZVlX-_jgiWTTWuIh-35" value="Theaters" style="ellipse;whiteSpace=wrap;html=1;strokeColor=#000066;fillColor=#FF8000;fontColor=#000099;" vertex="1" parent="1">
          <mxGeometry x="730" y="220" width="120" height="40" as="geometry" />
        </mxCell>
        <mxCell id="KjHHZVlX-_jgiWTTWuIh-36" value="Sights(POI)" style="ellipse;whiteSpace=wrap;html=1;strokeColor=#000066;fillColor=#FF8000;fontColor=#000099;" vertex="1" parent="1">
          <mxGeometry x="730" y="300" width="120" height="40" as="geometry" />
        </mxCell>
        <mxCell id="KjHHZVlX-_jgiWTTWuIh-41" value="" style="endArrow=classic;html=1;dashed=1;strokeColor=#FF8000;fontColor=#000099;entryX=0;entryY=0.5;entryDx=0;entryDy=0;" edge="1" parent="1" source="c1cb8d76720eaeb-3" target="KjHHZVlX-_jgiWTTWuIh-33">
          <mxGeometry relative="1" as="geometry">
            <mxPoint x="480" y="325" as="sourcePoint" />
            <mxPoint x="582.0871529106382" y="241.0026237282466" as="targetPoint" />
          </mxGeometry>
        </mxCell>
        <mxCell id="KjHHZVlX-_jgiWTTWuIh-42" value="&amp;lt;&amp;lt; include &amp;gt;&amp;gt;" style="edgeLabel;resizable=0;html=1;align=center;verticalAlign=middle;fontColor=#000099;" connectable="0" vertex="1" parent="KjHHZVlX-_jgiWTTWuIh-41">
          <mxGeometry relative="1" as="geometry" />
        </mxCell>
        <mxCell id="KjHHZVlX-_jgiWTTWuIh-43" value="" style="endArrow=classic;html=1;dashed=1;strokeColor=#FF8000;fontColor=#000099;" edge="1" parent="1" target="KjHHZVlX-_jgiWTTWuIh-34">
          <mxGeometry relative="1" as="geometry">
            <mxPoint x="665.1384349779246" y="183.64750327878403" as="sourcePoint" />
            <mxPoint x="740" y="140" as="targetPoint" />
          </mxGeometry>
        </mxCell>
        <mxCell id="KjHHZVlX-_jgiWTTWuIh-44" value="&amp;lt;&amp;lt; include &amp;gt;&amp;gt;" style="edgeLabel;resizable=0;html=1;align=center;verticalAlign=middle;fontColor=#000099;" connectable="0" vertex="1" parent="KjHHZVlX-_jgiWTTWuIh-43">
          <mxGeometry relative="1" as="geometry" />
        </mxCell>
        <mxCell id="KjHHZVlX-_jgiWTTWuIh-45" value="" style="endArrow=classic;html=1;dashed=1;strokeColor=#FF8000;fontColor=#000099;" edge="1" parent="1" source="c1cb8d76720eaeb-3" target="KjHHZVlX-_jgiWTTWuIh-35">
          <mxGeometry relative="1" as="geometry">
            <mxPoint x="675.1384349779246" y="193.64750327878403" as="sourcePoint" />
            <mxPoint x="750" y="150" as="targetPoint" />
          </mxGeometry>
        </mxCell>
        <mxCell id="KjHHZVlX-_jgiWTTWuIh-46" value="&amp;lt;&amp;lt; include &amp;gt;&amp;gt;" style="edgeLabel;resizable=0;html=1;align=center;verticalAlign=middle;fontColor=#000099;" connectable="0" vertex="1" parent="KjHHZVlX-_jgiWTTWuIh-45">
          <mxGeometry relative="1" as="geometry" />
        </mxCell>
        <mxCell id="KjHHZVlX-_jgiWTTWuIh-47" value="" style="endArrow=classic;html=1;dashed=1;strokeColor=#FF8000;fontColor=#000099;" edge="1" parent="1" source="c1cb8d76720eaeb-3" target="KjHHZVlX-_jgiWTTWuIh-36">
          <mxGeometry relative="1" as="geometry">
            <mxPoint x="685.1384349779246" y="203.64750327878403" as="sourcePoint" />
            <mxPoint x="760" y="160" as="targetPoint" />
          </mxGeometry>
        </mxCell>
        <mxCell id="KjHHZVlX-_jgiWTTWuIh-48" value="&amp;lt;&amp;lt; include &amp;gt;&amp;gt;" style="edgeLabel;resizable=0;html=1;align=center;verticalAlign=middle;fontColor=#000099;" connectable="0" vertex="1" parent="KjHHZVlX-_jgiWTTWuIh-47">
          <mxGeometry relative="1" as="geometry" />
        </mxCell>
        <mxCell id="KjHHZVlX-_jgiWTTWuIh-49" style="edgeStyle=none;curved=1;html=1;exitX=0;exitY=0.3333333333333333;exitPerimeter=0;jettySize=auto;orthogonalLoop=1;strokeColor=#FF8000;fontColor=#000099;exitDx=0;exitDy=0;" edge="1" parent="1" source="c1cb8d76720eaeb-20" target="KjHHZVlX-_jgiWTTWuIh-35">
          <mxGeometry relative="1" as="geometry">
            <mxPoint x="990" y="225.83333333333337" as="sourcePoint" />
            <mxPoint x="860" y="330" as="targetPoint" />
          </mxGeometry>
        </mxCell>
        <mxCell id="KjHHZVlX-_jgiWTTWuIh-50" style="edgeStyle=none;curved=1;html=1;jettySize=auto;orthogonalLoop=1;strokeColor=#FF8000;fontColor=#000099;entryX=1;entryY=0.5;entryDx=0;entryDy=0;exitX=0;exitY=0.3333333333333333;exitDx=0;exitDy=0;exitPerimeter=0;" edge="1" parent="1" source="c1cb8d76720eaeb-20" target="KjHHZVlX-_jgiWTTWuIh-34">
          <mxGeometry relative="1" as="geometry">
            <mxPoint x="980" y="220" as="sourcePoint" />
            <mxPoint x="856.0531031707658" y="242.86596868735694" as="targetPoint" />
          </mxGeometry>
        </mxCell>
        <mxCell id="KjHHZVlX-_jgiWTTWuIh-51" style="edgeStyle=none;curved=1;html=1;jettySize=auto;orthogonalLoop=1;strokeColor=#FF8000;fontColor=#000099;entryX=1;entryY=0.5;entryDx=0;entryDy=0;exitX=0;exitY=0.3333333333333333;exitDx=0;exitDy=0;exitPerimeter=0;" edge="1" parent="1" source="c1cb8d76720eaeb-20" target="KjHHZVlX-_jgiWTTWuIh-33">
          <mxGeometry relative="1" as="geometry">
            <mxPoint x="990" y="225.83333333333337" as="sourcePoint" />
            <mxPoint x="860" y="180" as="targetPoint" />
          </mxGeometry>
        </mxCell>
        <mxCell id="KjHHZVlX-_jgiWTTWuIh-52" value="From" style="ellipse;whiteSpace=wrap;html=1;strokeColor=#000066;fillColor=#FF8000;fontColor=#000099;" vertex="1" parent="1">
          <mxGeometry x="670" y="370" width="110" height="20" as="geometry" />
        </mxCell>
        <mxCell id="KjHHZVlX-_jgiWTTWuIh-53" value="To" style="ellipse;whiteSpace=wrap;html=1;strokeColor=#000066;fillColor=#FF8000;fontColor=#000099;" vertex="1" parent="1">
          <mxGeometry x="670" y="415" width="110" height="20" as="geometry" />
        </mxCell>
        <mxCell id="KjHHZVlX-_jgiWTTWuIh-54" value="Date" style="ellipse;whiteSpace=wrap;html=1;strokeColor=#000066;fillColor=#FF8000;fontColor=#000099;" vertex="1" parent="1">
          <mxGeometry x="670" y="467.5" width="110" height="20" as="geometry" />
        </mxCell>
        <mxCell id="KjHHZVlX-_jgiWTTWuIh-55" value="" style="endArrow=classic;html=1;dashed=1;strokeColor=#FF8000;fontColor=#000099;entryX=0;entryY=0.5;entryDx=0;entryDy=0;" edge="1" parent="1" source="KjHHZVlX-_jgiWTTWuIh-24" target="KjHHZVlX-_jgiWTTWuIh-52">
          <mxGeometry relative="1" as="geometry">
            <mxPoint x="662.426406871193" y="238.2842712474618" as="sourcePoint" />
            <mxPoint x="773.249524984129" y="312.0977590278402" as="targetPoint" />
          </mxGeometry>
        </mxCell>
        <mxCell id="KjHHZVlX-_jgiWTTWuIh-56" value="&amp;lt;&amp;lt; include &amp;gt;&amp;gt;" style="edgeLabel;resizable=0;html=1;align=center;verticalAlign=middle;fontColor=#000099;" connectable="0" vertex="1" parent="KjHHZVlX-_jgiWTTWuIh-55">
          <mxGeometry relative="1" as="geometry" />
        </mxCell>
        <mxCell id="KjHHZVlX-_jgiWTTWuIh-57" value="" style="endArrow=classic;html=1;dashed=1;strokeColor=#FF8000;fontColor=#000099;" edge="1" parent="1" source="KjHHZVlX-_jgiWTTWuIh-24" target="KjHHZVlX-_jgiWTTWuIh-53">
          <mxGeometry relative="1" as="geometry">
            <mxPoint x="570.5688100670632" y="426.58082761322987" as="sourcePoint" />
            <mxPoint x="650" y="390" as="targetPoint" />
          </mxGeometry>
        </mxCell>
        <mxCell id="KjHHZVlX-_jgiWTTWuIh-58" value="&amp;lt;&amp;lt; include &amp;gt;&amp;gt;" style="edgeLabel;resizable=0;html=1;align=center;verticalAlign=middle;fontColor=#000099;" connectable="0" vertex="1" parent="KjHHZVlX-_jgiWTTWuIh-57">
          <mxGeometry relative="1" as="geometry" />
        </mxCell>
        <mxCell id="KjHHZVlX-_jgiWTTWuIh-59" value="" style="endArrow=classic;html=1;dashed=1;strokeColor=#FF8000;fontColor=#000099;" edge="1" parent="1" target="KjHHZVlX-_jgiWTTWuIh-54">
          <mxGeometry relative="1" as="geometry">
            <mxPoint x="580.5688100670632" y="436.58082761322987" as="sourcePoint" />
            <mxPoint x="660" y="400" as="targetPoint" />
          </mxGeometry>
        </mxCell>
        <mxCell id="KjHHZVlX-_jgiWTTWuIh-60" value="&amp;lt;&amp;lt; include &amp;gt;&amp;gt;" style="edgeLabel;resizable=0;html=1;align=center;verticalAlign=middle;fontColor=#000099;" connectable="0" vertex="1" parent="KjHHZVlX-_jgiWTTWuIh-59">
          <mxGeometry relative="1" as="geometry" />
        </mxCell>
        <mxCell id="KjHHZVlX-_jgiWTTWuIh-65" style="edgeStyle=none;curved=1;html=1;exitX=0;exitY=0.3333333333333333;exitPerimeter=0;jettySize=auto;orthogonalLoop=1;strokeColor=#FF8000;fontColor=#000099;exitDx=0;exitDy=0;" edge="1" parent="1" source="c1cb8d76720eaeb-20" target="KjHHZVlX-_jgiWTTWuIh-30">
          <mxGeometry relative="1" as="geometry">
            <mxPoint x="980" y="383.33333333333326" as="sourcePoint" />
            <mxPoint x="860" y="330" as="targetPoint" />
            <Array as="points">
              <mxPoint x="830" y="570" />
            </Array>
          </mxGeometry>
        </mxCell>
        <mxCell id="KjHHZVlX-_jgiWTTWuIh-66" value="Coupons" style="ellipse;whiteSpace=wrap;html=1;strokeColor=#000066;fillColor=#FF8000;fontColor=#000099;" vertex="1" parent="1">
          <mxGeometry x="460" y="630" width="120" height="50" as="geometry" />
        </mxCell>
        <mxCell id="KjHHZVlX-_jgiWTTWuIh-67" value="Reservation" style="ellipse;whiteSpace=wrap;html=1;strokeColor=#000066;fillColor=#FF8000;fontColor=#000099;" vertex="1" parent="1">
          <mxGeometry x="460" y="690" width="120" height="50" as="geometry" />
        </mxCell>
        <mxCell id="KjHHZVlX-_jgiWTTWuIh-68" style="edgeStyle=none;curved=1;html=1;jettySize=auto;orthogonalLoop=1;strokeColor=#FF8000;fontColor=#000099;" edge="1" parent="1" target="KjHHZVlX-_jgiWTTWuIh-30">
          <mxGeometry relative="1" as="geometry">
            <mxPoint x="160" y="370" as="sourcePoint" />
            <mxPoint x="397.90541147253043" y="665.1158318492944" as="targetPoint" />
            <Array as="points">
              <mxPoint x="240" y="620" />
            </Array>
          </mxGeometry>
        </mxCell>
        <mxCell id="KjHHZVlX-_jgiWTTWuIh-69" style="edgeStyle=none;curved=1;html=1;exitX=0;exitY=0.3333333333333333;exitPerimeter=0;jettySize=auto;orthogonalLoop=1;strokeColor=#FF8000;fontColor=#000099;exitDx=0;exitDy=0;entryX=1;entryY=0.5;entryDx=0;entryDy=0;" edge="1" parent="1" source="c1cb8d76720eaeb-20" target="KjHHZVlX-_jgiWTTWuIh-66">
          <mxGeometry relative="1" as="geometry">
            <mxPoint x="980" y="383.33333333333326" as="sourcePoint" />
            <mxPoint x="588.9067910354172" y="600.2494523358534" as="targetPoint" />
            <Array as="points">
              <mxPoint x="840" y="580" />
            </Array>
          </mxGeometry>
        </mxCell>
        <mxCell id="KjHHZVlX-_jgiWTTWuIh-71" style="edgeStyle=none;curved=1;html=1;jettySize=auto;orthogonalLoop=1;strokeColor=#FF8000;fontColor=#000099;entryX=1;entryY=0.5;entryDx=0;entryDy=0;" edge="1" parent="1" target="KjHHZVlX-_jgiWTTWuIh-67">
          <mxGeometry relative="1" as="geometry">
            <mxPoint x="970" y="370" as="sourcePoint" />
            <mxPoint x="590" y="665" as="targetPoint" />
            <Array as="points">
              <mxPoint x="850" y="590" />
            </Array>
          </mxGeometry>
        </mxCell>
        <mxCell id="KjHHZVlX-_jgiWTTWuIh-72" style="edgeStyle=none;curved=1;html=1;jettySize=auto;orthogonalLoop=1;strokeColor=#FF8000;fontColor=#000099;exitX=1;exitY=0.3333333333333333;exitDx=0;exitDy=0;exitPerimeter=0;entryX=0;entryY=0.5;entryDx=0;entryDy=0;" edge="1" parent="1" source="c1cb8d76720eaeb-15">
          <mxGeometry relative="1" as="geometry">
            <mxPoint x="170" y="380" as="sourcePoint" />
            <mxPoint x="470" y="725" as="targetPoint" />
            <Array as="points">
              <mxPoint x="240" y="620" />
            </Array>
          </mxGeometry>
        </mxCell>
      </root>
    </mxGraphModel>
  </diagram>
</mxfile>
